<svg xmlns="http://www.w3.org/2000/svg" xmlns:xlink="http://www.w3.org/1999/xlink" width="355" zoomAndPan="magnify" viewBox="0 0 266.25 71.249999" height="95" preserveAspectRatio="xMidYMid meet" version="1.0"><defs><g/><clipPath id="43f74945d8"><path d="M 33.839844 0.46875 L 203 0.46875 L 203 42.773438 L 33.839844 42.773438 Z M 33.839844 0.46875 " clip-rule="nonzero"/></clipPath><clipPath id="49166a8b67"><path d="M 73 11 L 261.425781 11 L 261.425781 35 L 73 35 Z M 73 11 " clip-rule="nonzero"/></clipPath></defs><g fill="#ffffff" fill-opacity="1"><g transform="translate(100.344565, 51.582029)"><g><path d="M 11.101562 0 L 15.53125 -6.90625 L 14.207031 -4.035156 L 12.742188 0 L 20.023438 0 L 24.695312 -12.882812 L 17.136719 -12.882812 L 12.308594 -5.382812 L 12.921875 -12.882812 L 5.363281 -12.882812 L 0.691406 0 L 7.972656 0 L 9.4375 -4.035156 L 10.210938 -6.90625 L 9.617188 0 Z M 11.101562 0 "/></g></g></g><g fill="#ffffff" fill-opacity="1"><g transform="translate(121.55307, 51.582029)"><g><path d="M 8.984375 0 L 10.882812 -5.242188 L 12.484375 0 L 20.714844 0 L 20.757812 -0.117188 L 18.71875 -4.789062 L 19.074219 -4.789062 C 19.53125 -4.789062 19.925781 -4.867188 20.417969 -5.324219 L 21.746094 -6.488281 C 22.042969 -6.765625 22.199219 -6.984375 22.300781 -7.28125 L 22.992188 -9.140625 C 23.921875 -11.695312 22.476562 -12.882812 19.507812 -12.882812 L 5.363281 -12.882812 L 0.691406 0 Z M 12.523438 -9.773438 L 13.496094 -9.773438 C 14.007812 -9.773438 14.324219 -9.359375 14.109375 -8.804688 L 13.773438 -7.835938 C 13.574219 -7.320312 12.960938 -6.867188 12.40625 -6.867188 L 11.476562 -6.867188 Z M 12.523438 -9.773438 "/></g></g></g><g fill="#ffffff" fill-opacity="1"><g transform="translate(142.069138, 51.582029)"><g><path d="M 23.152344 -12.882812 L 10.191406 -12.882812 C 7.222656 -12.882812 4.945312 -11.695312 4.015625 -9.140625 L 1.839844 -3.164062 C 1.640625 -2.613281 1.703125 -2.058594 2.058594 -1.722656 L 3.820312 -0.296875 C 4.015625 -0.078125 4.3125 0 4.710938 0 L 14.742188 0 C 15.097656 0 15.453125 -0.078125 15.828125 -0.296875 L 18.597656 -1.722656 C 19.234375 -2.019531 19.707031 -2.613281 19.90625 -3.164062 L 20.972656 -6.09375 C 21.113281 -6.511719 21.054688 -6.925781 20.757812 -7.144531 L 19.726562 -7.972656 C 19.628906 -8.152344 19.390625 -8.191406 19.152344 -8.191406 L 12.664062 -8.191406 L 11.65625 -5.402344 L 13.238281 -5.402344 L 12.742188 -4.074219 C 12.566406 -3.542969 11.992188 -3.105469 11.4375 -3.105469 L 10.527344 -3.105469 C 9.972656 -3.105469 9.675781 -3.542969 9.855469 -4.074219 L 11.574219 -8.804688 C 11.792969 -9.359375 12.386719 -9.773438 12.902344 -9.773438 L 22.023438 -9.773438 Z M 23.152344 -12.882812 "/></g></g></g><g fill="#ff3131" fill-opacity="1"><g transform="translate(121.807028, 64.941382)"><g><path d="M 8.53125 -6.828125 L 7.3125 0 L 6.46875 0 L 7.53125 -5.9375 L 4.453125 0 L 3.375 0 L 2.40625 -6.015625 L 1.359375 0 L 0.515625 0 L 1.71875 -6.828125 L 3.125 -6.828125 L 4.078125 -0.890625 L 7.125 -6.828125 Z M 8.53125 -6.828125 "/></g></g></g><g fill="#ff3131" fill-opacity="1"><g transform="translate(134.321867, 64.941382)"><g><path d="M 2.453125 -6.125 L 2.03125 -3.765625 L 5.328125 -3.765625 L 5.203125 -3.0625 L 1.90625 -3.0625 L 1.484375 -0.6875 L 5.1875 -0.6875 L 5.046875 0 L 0.515625 0 L 1.71875 -6.828125 L 6.15625 -6.828125 L 6.03125 -6.125 Z M 2.453125 -6.125 "/></g></g></g><g fill="#ff3131" fill-opacity="1"><g transform="translate(144.146105, 64.941382)"><g><path d="M 4.390625 -6.96875 C 5.234375 -6.96875 5.867188 -6.753906 6.296875 -6.328125 C 6.722656 -5.898438 6.910156 -5.34375 6.859375 -4.65625 L 6.859375 -4.546875 L 6 -4.546875 L 6 -4.65625 C 6 -5.226562 5.851562 -5.644531 5.5625 -5.90625 C 5.28125 -6.164062 4.84375 -6.296875 4.25 -6.296875 C 3.445312 -6.296875 2.789062 -5.957031 2.28125 -5.28125 C 1.769531 -4.601562 1.515625 -3.773438 1.515625 -2.796875 C 1.515625 -2.046875 1.675781 -1.476562 2 -1.09375 C 2.320312 -0.71875 2.769531 -0.53125 3.34375 -0.53125 C 4.363281 -0.53125 5.085938 -1.078125 5.515625 -2.171875 L 5.546875 -2.28125 L 6.40625 -2.28125 L 6.375 -2.171875 C 6.175781 -1.472656 5.804688 -0.910156 5.265625 -0.484375 C 4.734375 -0.0664062 4.035156 0.140625 3.171875 0.140625 C 2.335938 0.140625 1.691406 -0.109375 1.234375 -0.609375 C 0.773438 -1.117188 0.550781 -1.8125 0.5625 -2.6875 C 0.550781 -3.894531 0.910156 -4.910156 1.640625 -5.734375 C 2.367188 -6.554688 3.285156 -6.96875 4.390625 -6.96875 Z M 4.390625 -6.96875 "/></g></g></g><g fill="#ff3131" fill-opacity="1"><g transform="translate(155.196942, 64.941382)"><g><path d="M 7.1875 -6.828125 L 5.96875 0 L 5.125 0 L 5.640625 -2.984375 L 1.890625 -2.984375 L 1.359375 0 L 0.515625 0 L 1.71875 -6.828125 L 2.578125 -6.828125 L 2.015625 -3.703125 L 5.78125 -3.703125 L 6.328125 -6.828125 Z M 7.1875 -6.828125 "/></g></g></g><g fill="#ff3131" fill-opacity="1"><g transform="translate(166.366486, 64.941382)"><g><path d="M 4.546875 -2.40625 L 2.046875 -2.40625 L 0.796875 0 L -0.171875 0 L 3.484375 -6.828125 L 4.703125 -6.828125 L 5.84375 0 L 4.921875 0 Z M 4.4375 -3.109375 L 3.96875 -6.15625 L 2.40625 -3.109375 Z M 4.4375 -3.109375 "/></g></g></g><g fill="#ff3131" fill-opacity="1"><g transform="translate(176.714999, 64.941382)"><g><path d="M 7.0625 -6.828125 L 5.859375 0 L 4.546875 0 L 2.40625 -6.015625 L 1.359375 0 L 0.515625 0 L 1.71875 -6.828125 L 3.03125 -6.828125 L 5.15625 -0.8125 L 6.21875 -6.828125 Z M 7.0625 -6.828125 "/></g></g></g><g fill="#ff3131" fill-opacity="1"><g transform="translate(187.765836, 64.941382)"><g><path d="M 1.359375 0 L 0.515625 0 L 1.71875 -6.828125 L 2.578125 -6.828125 Z M 1.359375 0 "/></g></g></g><g fill="#ff3131" fill-opacity="1"><g transform="translate(194.325734, 64.941382)"><g><path d="M 4.390625 -6.96875 C 5.234375 -6.96875 5.867188 -6.753906 6.296875 -6.328125 C 6.722656 -5.898438 6.910156 -5.34375 6.859375 -4.65625 L 6.859375 -4.546875 L 6 -4.546875 L 6 -4.65625 C 6 -5.226562 5.851562 -5.644531 5.5625 -5.90625 C 5.28125 -6.164062 4.84375 -6.296875 4.25 -6.296875 C 3.445312 -6.296875 2.789062 -5.957031 2.28125 -5.28125 C 1.769531 -4.601562 1.515625 -3.773438 1.515625 -2.796875 C 1.515625 -2.046875 1.675781 -1.476562 2 -1.09375 C 2.320312 -0.71875 2.769531 -0.53125 3.34375 -0.53125 C 4.363281 -0.53125 5.085938 -1.078125 5.515625 -2.171875 L 5.546875 -2.28125 L 6.40625 -2.28125 L 6.375 -2.171875 C 6.175781 -1.472656 5.804688 -0.910156 5.265625 -0.484375 C 4.734375 -0.0664062 4.035156 0.140625 3.171875 0.140625 C 2.335938 0.140625 1.691406 -0.109375 1.234375 -0.609375 C 0.773438 -1.117188 0.550781 -1.8125 0.5625 -2.6875 C 0.550781 -3.894531 0.910156 -4.910156 1.640625 -5.734375 C 2.367188 -6.554688 3.285156 -6.96875 4.390625 -6.96875 Z M 4.390625 -6.96875 "/></g></g></g><g fill="#ff3131" fill-opacity="1"><g transform="translate(205.376571, 64.941382)"><g><path d="M 3.5625 -6.96875 C 4.25 -6.96875 4.765625 -6.78125 5.109375 -6.40625 C 5.453125 -6.03125 5.609375 -5.539062 5.578125 -4.9375 L 4.671875 -4.9375 C 4.703125 -5.363281 4.601562 -5.695312 4.375 -5.9375 C 4.144531 -6.175781 3.8125 -6.296875 3.375 -6.296875 C 2.957031 -6.296875 2.613281 -6.179688 2.34375 -5.953125 C 2.082031 -5.722656 1.953125 -5.414062 1.953125 -5.03125 C 1.953125 -4.738281 2.050781 -4.507812 2.25 -4.34375 C 2.445312 -4.1875 2.769531 -4.054688 3.21875 -3.953125 C 3.863281 -3.785156 4.34375 -3.550781 4.65625 -3.25 C 4.976562 -2.957031 5.140625 -2.5625 5.140625 -2.0625 C 5.140625 -1.394531 4.878906 -0.859375 4.359375 -0.453125 C 3.847656 -0.0546875 3.195312 0.140625 2.40625 0.140625 C 1.6875 0.140625 1.125 -0.0390625 0.71875 -0.40625 C 0.3125 -0.78125 0.128906 -1.289062 0.171875 -1.9375 L 1.078125 -1.9375 C 1.097656 -1.488281 1.234375 -1.140625 1.484375 -0.890625 C 1.742188 -0.648438 2.097656 -0.53125 2.546875 -0.53125 C 3.015625 -0.53125 3.40625 -0.65625 3.71875 -0.90625 C 4.03125 -1.15625 4.1875 -1.492188 4.1875 -1.921875 C 4.1875 -2.242188 4.070312 -2.5 3.84375 -2.6875 C 3.625 -2.875 3.257812 -3.03125 2.75 -3.15625 C 2.1875 -3.289062 1.753906 -3.484375 1.453125 -3.734375 C 1.148438 -3.984375 1 -4.328125 1 -4.765625 C 1 -5.429688 1.242188 -5.960938 1.734375 -6.359375 C 2.222656 -6.765625 2.832031 -6.96875 3.5625 -6.96875 Z M 3.5625 -6.96875 "/></g></g></g><g clip-path="url(#43f74945d8)"><path fill="#ffffff" d="M 41.6875 36.828125 C 44.3125 35.257812 47.191406 34.167969 50.160156 33.492188 C 50.53125 33.398438 50.90625 33.328125 51.28125 33.25 C 51.46875 33.214844 51.65625 33.183594 51.84375 33.152344 C 52.03125 33.117188 52.21875 33.085938 52.410156 33.058594 C 53.164062 32.929688 53.925781 32.855469 54.6875 32.78125 C 56.210938 32.652344 57.753906 32.613281 59.292969 32.679688 C 59.679688 32.691406 60.0625 32.71875 60.449219 32.742188 C 60.835938 32.773438 61.222656 32.804688 61.605469 32.847656 C 62.378906 32.929688 63.148438 33.03125 63.917969 33.167969 C 64.691406 33.300781 65.460938 33.453125 66.226562 33.636719 C 66.996094 33.824219 67.765625 34.027344 68.535156 34.25 C 67.203125 33.355469 65.734375 32.640625 64.207031 32.085938 C 63.828125 31.945312 63.4375 31.824219 63.050781 31.699219 C 62.660156 31.582031 62.265625 31.46875 61.871094 31.375 C 61.078125 31.171875 60.273438 31.015625 59.464844 30.894531 C 59.058594 30.832031 58.652344 30.785156 58.246094 30.738281 C 58.039062 30.71875 57.835938 30.707031 57.632812 30.6875 C 57.425781 30.671875 57.222656 30.65625 57.019531 30.648438 C 56.199219 30.59375 55.375 30.605469 54.554688 30.625 C 54.140625 30.644531 53.730469 30.664062 53.320312 30.703125 L 52.707031 30.761719 L 52.089844 30.832031 C 51.886719 30.855469 51.683594 30.890625 51.476562 30.925781 C 51.273438 30.957031 51.070312 30.988281 50.867188 31.023438 C 50.464844 31.105469 50.054688 31.175781 49.652344 31.269531 C 46.4375 32.003906 43.332031 33.359375 40.6875 35.347656 C 39.371094 36.34375 38.164062 37.488281 37.152344 38.78125 C 36.898438 39.101562 36.660156 39.4375 36.429688 39.773438 L 36.097656 40.289062 C 35.988281 40.457031 35.894531 40.640625 35.792969 40.816406 C 35.390625 41.523438 35.054688 42.261719 34.792969 43.023438 C 36.699219 40.4375 39.054688 38.390625 41.6875 36.828125 Z M 202.363281 12.703125 L 202.160156 12.710938 C 195.207031 10.648438 188.265625 8.574219 181.238281 6.878906 C 177.5625 5.976562 173.863281 5.1875 170.144531 4.550781 C 169.214844 4.375 168.28125 4.25 167.351562 4.097656 C 166.882812 4.027344 166.417969 3.949219 165.953125 3.882812 L 164.554688 3.699219 L 163.152344 3.515625 C 162.6875 3.457031 162.21875 3.417969 161.75 3.367188 C 160.8125 3.277344 159.878906 3.15625 158.941406 3.101562 L 157.535156 3.003906 C 157.066406 2.96875 156.597656 2.929688 156.128906 2.917969 C 155.191406 2.882812 154.25 2.835938 153.316406 2.808594 L 150.511719 2.792969 C 149.578125 2.816406 148.644531 2.859375 147.710938 2.890625 C 143.984375 3.101562 140.273438 3.589844 136.621094 4.363281 C 132.96875 5.136719 129.367188 6.167969 125.84375 7.425781 C 122.3125 8.671875 118.847656 10.128906 115.449219 11.734375 C 114.601562 12.136719 113.746094 12.527344 112.90625 12.957031 C 112.066406 13.378906 111.214844 13.78125 110.382812 14.226562 C 109.550781 14.664062 108.710938 15.089844 107.878906 15.539062 L 105.375 16.886719 C 103.695312 17.789062 101.984375 18.683594 100.199219 19.476562 C 98.417969 20.273438 96.554688 20.96875 94.613281 21.433594 L 93.886719 21.601562 L 93.164062 21.742188 C 92.683594 21.84375 92.199219 21.914062 91.71875 21.996094 C 90.753906 22.140625 89.789062 22.269531 88.828125 22.363281 C 86.90625 22.566406 84.996094 22.667969 83.101562 22.789062 C 81.210938 22.902344 79.339844 23.035156 77.484375 23.238281 L 71.847656 23.941406 C 69.964844 24.171875 68.085938 24.410156 66.21875 24.675781 C 64.347656 24.941406 62.484375 25.234375 60.628906 25.566406 C 56.925781 26.238281 53.257812 27.101562 49.730469 28.367188 C 46.207031 29.617188 42.8125 31.316406 39.949219 33.726562 C 38.519531 34.929688 37.25 36.328125 36.21875 37.898438 C 35.171875 39.460938 34.386719 41.203125 33.84375 43.023438 C 34.238281 41.164062 34.925781 39.355469 35.875 37.6875 C 36.832031 36.023438 38.054688 34.507812 39.457031 33.179688 C 40.855469 31.84375 42.429688 30.707031 44.085938 29.714844 C 45.742188 28.722656 47.480469 27.882812 49.261719 27.152344 C 51.042969 26.421875 52.871094 25.808594 54.710938 25.269531 C 56.554688 24.730469 58.417969 24.269531 60.289062 23.859375 C 62.15625 23.441406 64.039062 23.097656 65.921875 22.777344 C 67.800781 22.457031 69.6875 22.167969 71.566406 21.886719 L 77.210938 21.023438 C 79.125 20.761719 81.039062 20.601562 82.933594 20.445312 C 84.828125 20.292969 86.710938 20.144531 88.5625 19.929688 C 89.488281 19.828125 90.40625 19.691406 91.316406 19.542969 C 91.769531 19.457031 92.226562 19.386719 92.671875 19.285156 L 93.347656 19.144531 L 94.003906 18.980469 C 94.875 18.753906 95.742188 18.488281 96.59375 18.167969 C 97.449219 17.855469 98.296875 17.507812 99.136719 17.121094 C 100.816406 16.359375 102.460938 15.476562 104.121094 14.570312 L 106.625 13.207031 C 107.46875 12.753906 108.320312 12.316406 109.164062 11.871094 C 110.007812 11.417969 110.871094 11.003906 111.722656 10.570312 C 112.578125 10.132812 113.445312 9.730469 114.3125 9.320312 C 117.785156 7.691406 121.332031 6.207031 124.96875 4.9375 C 128.605469 3.679688 132.328125 2.632812 136.113281 1.882812 C 139.902344 1.136719 143.75 0.671875 147.609375 0.539062 C 148.570312 0.527344 149.535156 0.503906 150.5 0.496094 L 153.394531 0.570312 C 154.355469 0.625 155.308594 0.699219 156.269531 0.761719 C 156.746094 0.785156 157.222656 0.839844 157.703125 0.886719 L 159.132812 1.03125 C 160.089844 1.113281 161.035156 1.257812 161.988281 1.375 C 162.460938 1.441406 162.9375 1.492188 163.410156 1.566406 L 166.246094 2.019531 C 166.71875 2.101562 167.1875 2.191406 167.65625 2.277344 C 168.597656 2.453125 169.539062 2.621094 170.472656 2.832031 C 174.210938 3.621094 177.914062 4.554688 181.574219 5.613281 C 188.617188 7.675781 195.527344 10.101562 202.363281 12.703125 Z M 202.363281 12.703125 " fill-opacity="1" fill-rule="nonzero"/></g><g clip-path="url(#49166a8b67)"><path fill="#ff3131" d="M 202.363281 13.363281 L 202.160156 13.371094 L 177.472656 14.34375 L 153.335938 19.128906 L 261.425781 11.042969 Z M 109.5 27.171875 L 138.089844 21.5 L 237.515625 17.59375 Z M 73.394531 34.464844 L 101.980469 28.796875 L 201.410156 24.890625 Z M 73.394531 34.464844 " fill-opacity="1" fill-rule="nonzero"/></g></svg>