<svg xmlns="http://www.w3.org/2000/svg" xmlns:xlink="http://www.w3.org/1999/xlink" width="500" zoomAndPan="magnify" viewBox="0 0 375 374.999991" height="500" preserveAspectRatio="xMidYMid meet" version="1.0"><defs><g/><clipPath id="74849b37a3"><path d="M 89.421875 143 L 260 143 L 260 185.722656 L 89.421875 185.722656 Z M 89.421875 143 " clip-rule="nonzero"/></clipPath><clipPath id="42bab8c4fc"><path d="M 129 153 L 319.402344 153 L 319.402344 178 L 129 178 Z M 129 153 " clip-rule="nonzero"/></clipPath></defs><g fill="#ffffff" fill-opacity="1"><g transform="translate(156.6245, 194.624987)"><g><path d="M 11.21875 0 L 15.695312 -6.976562 L 14.355469 -4.078125 L 12.875 0 L 20.234375 0 L 24.953125 -13.015625 L 17.316406 -13.015625 L 12.4375 -5.4375 L 13.058594 -13.015625 L 5.417969 -13.015625 L 0.699219 0 L 8.058594 0 L 9.539062 -4.078125 L 10.316406 -6.976562 L 9.71875 0 Z M 11.21875 0 "/></g></g></g><g fill="#ffffff" fill-opacity="1"><g transform="translate(178.056253, 194.624987)"><g><path d="M 9.078125 0 L 10.996094 -5.296875 L 12.617188 0 L 20.933594 0 L 20.976562 -0.121094 L 18.914062 -4.839844 L 19.273438 -4.839844 C 19.734375 -4.839844 20.136719 -4.917969 20.636719 -5.378906 L 21.972656 -6.558594 C 22.273438 -6.839844 22.433594 -7.058594 22.535156 -7.359375 L 23.234375 -9.238281 C 24.175781 -11.816406 22.714844 -13.015625 19.714844 -13.015625 L 5.417969 -13.015625 L 0.699219 0 Z M 12.65625 -9.878906 L 13.636719 -9.878906 C 14.15625 -9.878906 14.476562 -9.457031 14.257812 -8.898438 L 13.917969 -7.917969 C 13.714844 -7.398438 13.097656 -6.9375 12.535156 -6.9375 L 11.597656 -6.9375 Z M 12.65625 -9.878906 "/></g></g></g><g fill="#ffffff" fill-opacity="1"><g transform="translate(198.78828, 194.624987)"><g><path d="M 23.394531 -13.015625 L 10.296875 -13.015625 C 7.296875 -13.015625 5 -11.816406 4.058594 -9.238281 L 1.859375 -3.199219 C 1.660156 -2.640625 1.71875 -2.078125 2.078125 -1.738281 L 3.859375 -0.300781 C 4.058594 -0.078125 4.359375 0 4.757812 0 L 14.894531 0 C 15.257812 0 15.617188 -0.078125 15.996094 -0.300781 L 18.796875 -1.738281 C 19.433594 -2.039062 19.914062 -2.640625 20.113281 -3.199219 L 21.195312 -6.160156 C 21.335938 -6.578125 21.273438 -7 20.976562 -7.21875 L 19.933594 -8.058594 C 19.835938 -8.238281 19.59375 -8.277344 19.355469 -8.277344 L 12.796875 -8.277344 L 11.777344 -5.457031 L 13.375 -5.457031 L 12.875 -4.117188 C 12.695312 -3.578125 12.117188 -3.140625 11.558594 -3.140625 L 10.636719 -3.140625 C 10.078125 -3.140625 9.777344 -3.578125 9.957031 -4.117188 L 11.695312 -8.898438 C 11.917969 -9.457031 12.515625 -9.878906 13.035156 -9.878906 L 22.253906 -9.878906 Z M 23.394531 -13.015625 "/></g></g></g><g fill="#ff3131" fill-opacity="1"><g transform="translate(178.312889, 208.124958)"><g><path d="M 8.625 -6.90625 L 7.40625 0 L 6.546875 0 L 7.625 -6 L 4.5 0 L 3.421875 0 L 2.4375 -6.09375 L 1.375 0 L 0.515625 0 L 1.734375 -6.90625 L 3.15625 -6.90625 L 4.125 -0.90625 L 7.203125 -6.90625 Z M 8.625 -6.90625 "/></g></g></g><g fill="#ff3131" fill-opacity="1"><g transform="translate(190.959463, 208.124958)"><g><path d="M 2.484375 -6.203125 L 2.046875 -3.796875 L 5.375 -3.796875 L 5.265625 -3.09375 L 1.9375 -3.09375 L 1.5 -0.703125 L 5.234375 -0.703125 L 5.109375 0 L 0.515625 0 L 1.734375 -6.90625 L 6.234375 -6.90625 L 6.09375 -6.203125 Z M 2.484375 -6.203125 "/></g></g></g><g fill="#ff3131" fill-opacity="1"><g transform="translate(200.887115, 208.124958)"><g><path d="M 4.4375 -7.046875 C 5.289062 -7.046875 5.929688 -6.828125 6.359375 -6.390625 C 6.796875 -5.960938 6.988281 -5.398438 6.9375 -4.703125 L 6.9375 -4.59375 L 6.0625 -4.59375 L 6.0625 -4.703125 C 6.0625 -5.273438 5.914062 -5.691406 5.625 -5.953125 C 5.332031 -6.222656 4.890625 -6.359375 4.296875 -6.359375 C 3.484375 -6.359375 2.820312 -6.015625 2.3125 -5.328125 C 1.800781 -4.648438 1.546875 -3.8125 1.546875 -2.8125 C 1.546875 -2.0625 1.707031 -1.492188 2.03125 -1.109375 C 2.351562 -0.734375 2.800781 -0.546875 3.375 -0.546875 C 4.414062 -0.546875 5.144531 -1.097656 5.5625 -2.203125 L 5.609375 -2.296875 L 6.46875 -2.296875 L 6.4375 -2.203125 C 6.238281 -1.484375 5.867188 -0.910156 5.328125 -0.484375 C 4.785156 -0.0664062 4.078125 0.140625 3.203125 0.140625 C 2.359375 0.140625 1.707031 -0.113281 1.25 -0.625 C 0.789062 -1.132812 0.5625 -1.828125 0.5625 -2.703125 C 0.5625 -3.929688 0.925781 -4.960938 1.65625 -5.796875 C 2.394531 -6.628906 3.320312 -7.046875 4.4375 -7.046875 Z M 4.4375 -7.046875 "/></g></g></g><g fill="#ff3131" fill-opacity="1"><g transform="translate(212.054276, 208.124958)"><g><path d="M 7.265625 -6.90625 L 6.046875 0 L 5.1875 0 L 5.703125 -3.015625 L 1.90625 -3.015625 L 1.375 0 L 0.515625 0 L 1.734375 -6.90625 L 2.59375 -6.90625 L 2.046875 -3.734375 L 5.84375 -3.734375 L 6.40625 -6.90625 Z M 7.265625 -6.90625 "/></g></g></g><g fill="#ff3131" fill-opacity="1"><g transform="translate(223.341394, 208.124958)"><g><path d="M 4.59375 -2.4375 L 2.0625 -2.4375 L 0.8125 0 L -0.171875 0 L 3.53125 -6.90625 L 4.75 -6.90625 L 5.90625 0 L 4.984375 0 Z M 4.484375 -3.140625 L 4.015625 -6.21875 L 2.4375 -3.140625 Z M 4.484375 -3.140625 "/></g></g></g><g fill="#ff3131" fill-opacity="1"><g transform="translate(233.798838, 208.124958)"><g><path d="M 7.140625 -6.90625 L 5.921875 0 L 4.59375 0 L 2.4375 -6.078125 L 1.375 0 L 0.515625 0 L 1.734375 -6.90625 L 3.0625 -6.90625 L 5.203125 -0.8125 L 6.28125 -6.90625 Z M 7.140625 -6.90625 "/></g></g></g><g fill="#ff3131" fill-opacity="1"><g transform="translate(244.966, 208.124958)"><g><path d="M 1.375 0 L 0.515625 0 L 1.734375 -6.90625 L 2.59375 -6.90625 Z M 1.375 0 "/></g></g></g><g fill="#ff3131" fill-opacity="1"><g transform="translate(251.594949, 208.124958)"><g><path d="M 4.4375 -7.046875 C 5.289062 -7.046875 5.929688 -6.828125 6.359375 -6.390625 C 6.796875 -5.960938 6.988281 -5.398438 6.9375 -4.703125 L 6.9375 -4.59375 L 6.0625 -4.59375 L 6.0625 -4.703125 C 6.0625 -5.273438 5.914062 -5.691406 5.625 -5.953125 C 5.332031 -6.222656 4.890625 -6.359375 4.296875 -6.359375 C 3.484375 -6.359375 2.820312 -6.015625 2.3125 -5.328125 C 1.800781 -4.648438 1.546875 -3.8125 1.546875 -2.8125 C 1.546875 -2.0625 1.707031 -1.492188 2.03125 -1.109375 C 2.351562 -0.734375 2.800781 -0.546875 3.375 -0.546875 C 4.414062 -0.546875 5.144531 -1.097656 5.5625 -2.203125 L 5.609375 -2.296875 L 6.46875 -2.296875 L 6.4375 -2.203125 C 6.238281 -1.484375 5.867188 -0.910156 5.328125 -0.484375 C 4.785156 -0.0664062 4.078125 0.140625 3.203125 0.140625 C 2.359375 0.140625 1.707031 -0.113281 1.25 -0.625 C 0.789062 -1.132812 0.5625 -1.828125 0.5625 -2.703125 C 0.5625 -3.929688 0.925781 -4.960938 1.65625 -5.796875 C 2.394531 -6.628906 3.320312 -7.046875 4.4375 -7.046875 Z M 4.4375 -7.046875 "/></g></g></g><g fill="#ff3131" fill-opacity="1"><g transform="translate(262.762111, 208.124958)"><g><path d="M 3.59375 -7.046875 C 4.289062 -7.046875 4.8125 -6.851562 5.15625 -6.46875 C 5.507812 -6.09375 5.671875 -5.597656 5.640625 -4.984375 L 4.71875 -4.984375 C 4.75 -5.421875 4.644531 -5.757812 4.40625 -6 C 4.175781 -6.238281 3.84375 -6.359375 3.40625 -6.359375 C 2.988281 -6.359375 2.644531 -6.242188 2.375 -6.015625 C 2.101562 -5.785156 1.96875 -5.472656 1.96875 -5.078125 C 1.96875 -4.796875 2.066406 -4.570312 2.265625 -4.40625 C 2.460938 -4.238281 2.789062 -4.097656 3.25 -3.984375 C 3.90625 -3.828125 4.390625 -3.597656 4.703125 -3.296875 C 5.023438 -2.992188 5.1875 -2.59375 5.1875 -2.09375 C 5.1875 -1.414062 4.925781 -0.875 4.40625 -0.46875 C 3.882812 -0.0625 3.226562 0.140625 2.4375 0.140625 C 1.707031 0.140625 1.132812 -0.046875 0.71875 -0.421875 C 0.3125 -0.796875 0.128906 -1.304688 0.171875 -1.953125 L 1.09375 -1.953125 C 1.113281 -1.503906 1.25 -1.15625 1.5 -0.90625 C 1.757812 -0.664062 2.113281 -0.546875 2.5625 -0.546875 C 3.050781 -0.546875 3.453125 -0.671875 3.765625 -0.921875 C 4.078125 -1.171875 4.234375 -1.507812 4.234375 -1.9375 C 4.234375 -2.269531 4.117188 -2.53125 3.890625 -2.71875 C 3.660156 -2.90625 3.289062 -3.0625 2.78125 -3.1875 C 2.21875 -3.332031 1.78125 -3.53125 1.46875 -3.78125 C 1.164062 -4.03125 1.015625 -4.375 1.015625 -4.8125 C 1.015625 -5.488281 1.257812 -6.03125 1.75 -6.4375 C 2.25 -6.84375 2.863281 -7.046875 3.59375 -7.046875 Z M 3.59375 -7.046875 "/></g></g></g><g clip-path="url(#74849b37a3)"><path fill="#ffffff" d="M 97.347656 179.714844 C 100.003906 178.128906 102.910156 177.027344 105.914062 176.34375 C 106.289062 176.25 106.664062 176.179688 107.042969 176.101562 C 107.234375 176.0625 107.421875 176.035156 107.613281 176 C 107.804688 175.964844 107.992188 175.933594 108.183594 175.90625 C 108.945312 175.777344 109.714844 175.703125 110.484375 175.628906 C 112.027344 175.496094 113.582031 175.457031 115.140625 175.523438 C 115.53125 175.535156 115.917969 175.5625 116.308594 175.585938 C 116.699219 175.621094 117.089844 175.652344 117.480469 175.695312 C 118.257812 175.777344 119.039062 175.878906 119.816406 176.015625 C 120.59375 176.152344 121.375 176.304688 122.148438 176.492188 C 122.925781 176.679688 123.703125 176.886719 124.480469 177.109375 C 123.132812 176.207031 121.652344 175.484375 120.105469 174.925781 C 119.722656 174.78125 119.328125 174.65625 118.9375 174.53125 C 118.542969 174.414062 118.144531 174.300781 117.746094 174.203125 C 116.945312 174 116.132812 173.839844 115.3125 173.71875 C 114.90625 173.65625 114.492188 173.609375 114.082031 173.5625 C 113.875 173.542969 113.667969 173.53125 113.460938 173.511719 C 113.253906 173.492188 113.046875 173.480469 112.839844 173.472656 C 112.011719 173.417969 111.183594 173.429688 110.351562 173.449219 C 109.9375 173.46875 109.519531 173.484375 109.105469 173.527344 L 108.484375 173.585938 L 107.863281 173.660156 C 107.65625 173.679688 107.449219 173.714844 107.242188 173.75 C 107.039062 173.785156 106.832031 173.8125 106.628906 173.851562 C 106.21875 173.933594 105.808594 174.003906 105.402344 174.101562 C 102.148438 174.839844 99.011719 176.210938 96.339844 178.21875 C 95.011719 179.226562 93.789062 180.382812 92.769531 181.6875 C 92.511719 182.015625 92.269531 182.351562 92.035156 182.691406 L 91.703125 183.210938 C 91.589844 183.382812 91.496094 183.566406 91.390625 183.742188 C 90.988281 184.460938 90.648438 185.207031 90.382812 185.976562 C 92.308594 183.363281 94.691406 181.296875 97.347656 179.714844 Z M 259.71875 155.335938 L 259.511719 155.34375 C 252.488281 153.261719 245.46875 151.164062 238.371094 149.453125 C 234.65625 148.539062 230.917969 147.742188 227.15625 147.097656 C 226.222656 146.921875 225.277344 146.796875 224.335938 146.640625 C 223.863281 146.570312 223.394531 146.492188 222.925781 146.421875 L 221.507812 146.238281 L 220.09375 146.054688 C 219.621094 145.992188 219.148438 145.953125 218.675781 145.902344 C 217.730469 145.808594 216.785156 145.691406 215.835938 145.636719 L 214.417969 145.535156 C 213.941406 145.5 213.46875 145.460938 212.996094 145.449219 C 212.046875 145.414062 211.097656 145.363281 210.152344 145.339844 L 207.320312 145.320312 C 206.375 145.347656 205.433594 145.390625 204.492188 145.421875 C 200.722656 145.632812 196.976562 146.125 193.285156 146.910156 C 189.59375 147.6875 185.953125 148.734375 182.390625 150.003906 C 178.820312 151.261719 175.324219 152.738281 171.886719 154.355469 C 171.03125 154.761719 170.167969 155.160156 169.316406 155.589844 C 168.46875 156.019531 167.609375 156.429688 166.769531 156.875 C 165.925781 157.320312 165.078125 157.75 164.238281 158.203125 L 161.710938 159.566406 C 160.011719 160.472656 158.28125 161.382812 156.476562 162.183594 C 154.675781 162.988281 152.796875 163.6875 150.835938 164.160156 L 150.097656 164.328125 L 149.367188 164.472656 C 148.882812 164.574219 148.394531 164.644531 147.90625 164.730469 C 146.933594 164.875 145.957031 165.003906 144.988281 165.097656 C 143.042969 165.300781 141.113281 165.40625 139.203125 165.527344 C 137.289062 165.640625 135.398438 165.777344 133.527344 165.980469 L 127.828125 166.691406 C 125.925781 166.925781 124.027344 167.164062 122.136719 167.433594 C 120.25 167.703125 118.367188 168 116.492188 168.335938 C 112.75 169.011719 109.039062 169.886719 105.476562 171.167969 C 101.914062 172.429688 98.488281 174.144531 95.59375 176.582031 C 94.148438 177.796875 92.867188 179.210938 91.820312 180.796875 C 90.765625 182.378906 89.972656 184.136719 89.421875 185.976562 C 89.820312 184.097656 90.515625 182.269531 91.476562 180.585938 C 92.441406 178.902344 93.679688 177.371094 95.09375 176.027344 C 96.507812 174.679688 98.101562 173.53125 99.773438 172.527344 C 101.445312 171.527344 103.203125 170.675781 105.003906 169.9375 C 106.804688 169.199219 108.652344 168.582031 110.511719 168.039062 C 112.375 167.492188 114.257812 167.027344 116.144531 166.609375 C 118.035156 166.191406 119.9375 165.839844 121.835938 165.515625 C 123.738281 165.191406 125.644531 164.902344 127.542969 164.613281 L 133.246094 163.746094 C 135.183594 163.480469 137.117188 163.316406 139.03125 163.160156 C 140.945312 163.007812 142.847656 162.855469 144.71875 162.640625 C 145.65625 162.535156 146.582031 162.398438 147.503906 162.25 C 147.960938 162.160156 148.421875 162.089844 148.871094 161.988281 L 149.554688 161.84375 L 150.214844 161.679688 C 151.097656 161.453125 151.972656 161.183594 152.835938 160.859375 C 153.699219 160.542969 154.554688 160.191406 155.402344 159.800781 C 157.101562 159.03125 158.765625 158.140625 160.441406 157.226562 L 162.972656 155.847656 C 163.820312 155.386719 164.683594 154.945312 165.535156 154.496094 C 166.386719 154.039062 167.261719 153.621094 168.125 153.183594 C 168.984375 152.742188 169.863281 152.332031 170.738281 151.917969 C 174.246094 150.273438 177.832031 148.773438 181.507812 147.488281 C 185.183594 146.21875 188.941406 145.160156 192.769531 144.402344 C 196.597656 143.648438 200.484375 143.179688 204.386719 143.046875 C 205.359375 143.03125 206.335938 143.007812 207.308594 143 L 210.230469 143.078125 C 211.203125 143.128906 212.167969 143.207031 213.136719 143.269531 C 213.621094 143.296875 214.101562 143.347656 214.585938 143.398438 L 216.03125 143.542969 C 216.996094 143.625 217.957031 143.769531 218.914062 143.890625 C 219.394531 143.957031 219.875 144.007812 220.355469 144.085938 L 221.789062 144.3125 L 223.21875 144.539062 C 223.695312 144.621094 224.171875 144.714844 224.644531 144.800781 C 225.597656 144.976562 226.546875 145.148438 227.488281 145.363281 C 231.269531 146.160156 235.011719 147.101562 238.707031 148.171875 C 245.828125 150.253906 252.808594 152.707031 259.71875 155.335938 Z M 259.71875 155.335938 " fill-opacity="1" fill-rule="nonzero"/></g><g clip-path="url(#42bab8c4fc)"><path fill="#ff3131" d="M 259.71875 156.003906 L 259.511719 156.011719 L 234.5625 156.992188 L 210.171875 161.832031 L 319.402344 153.660156 Z M 165.878906 169.957031 L 194.765625 164.226562 L 295.238281 160.28125 Z M 129.390625 177.328125 L 158.277344 171.601562 L 258.753906 167.652344 Z M 129.390625 177.328125 " fill-opacity="1" fill-rule="nonzero"/></g></svg>